<svg class="row__bean -top-right u-fill-current u-text-roman" xmlns="http://www.w3.org/2000/svg" viewBox="0 0 303.69148 189.52153">
  <path d="M299.26631 65.61333a54.64341 54.64341 0 00-49.46484-32.86768 68.41611 68.41611 0 00-85.229-27.1831L41.19014 58.74126A68.17694 68.17694 0 0095.16133 183.959l22.16993-9.55566a54.57237 54.57237 0 0053.43017 5.91211l100.043-43.12012a54.63037 54.63037 0 0028.46188-71.582zM94.36934 182.12309A66.17746 66.17746 0 0141.98213 60.5772L165.36446 7.39848a66.426 66.426 0 0182.09668 25.36841 53.94911 53.94911 0 00-19.77588 4.38452L127.64131 80.27153a54.63077 54.63077 0 00-28.46191 71.58179 53.9889 53.9889 0 0016.30225 21.16992z" />
</svg>