<svg version="1.2" xmlns="http://www.w3.org/2000/svg" viewBox="0 0 476 402" width="476" height="402">
	<title>Vote-svg</title>
	<style>
		.s0 { fill: #a0616a } 
		.s1 { fill: #2f2e41 } 
		.s2 { fill: #cccccc } 
		.s3 { opacity: .1;fill: #000000 } 
		.s4 { fill: #ffffff } 
		.s5 { fill: #e6e6e6 } 
		.s6 { fill: #3f3d56 } 
		.s7 { fill: #6c63ff } 
	</style>
	<path id="ad4b1b16-27d0-4c9f-840a-ee213421f5fc-150" class="s0" d="m222.4 119.6q0.1 0.2 0.3 0.3 0.1 0.2 0.2 0.3 0.2 0.2 0.3 0.3 0.1 0.2 0.2 0.4l49.6-1.8 5.7-10.6 17.1 6.4-8.2 19.8q-0.5 1.2-1.3 2.2-0.9 1-2 1.7-1.1 0.6-2.4 0.9-1.2 0.3-2.5 0.1l-56.1-6.1c-2.7 3.4-7.2 4.9-11.4 3.6-4.2-1.3-7.1-5-7.4-9.4-0.3-4.3 2.2-8.4 6.1-10.2 4-1.8 8.7-1 11.8 2.1z"/>
	<path id="Layer" class="s1" d="m317.3 10.1c16 0 28.9 12.9 28.9 28.9 0 16-12.9 28.9-28.9 28.9-16 0-28.9-12.9-28.9-28.9 0-16 12.9-28.9 28.9-28.9z"/>
	<path id="Layer" class="s1" d="m337.8 8.6c3.5-3.5 10.1-2.6 14.8 2.1 4.7 4.7 5.6 11.3 2.1 14.8-3.5 3.5-10.1 2.6-14.8-2.1-4.7-4.7-5.6-11.3-2.1-14.8z"/>
	<path id="Layer" class="s1" d="m294.6 1.2c6.1-2.6 12.6-1 14.6 3.6 1.9 4.6-1.4 10.4-7.5 13-6.1 2.6-12.6 1-14.6-3.6-1.9-4.6 1.4-10.4 7.5-13z"/>
	<path id="Layer" class="s2" d="m273.5 115.9q-0.7-0.8-1-1.8-0.3-1-0.1-2 0.1-1.1 0.7-1.9l13-20.4c1.4-3.3 4.1-5.8 7.4-7 3.3-1.3 7-1.2 10.2 0.2 3.3 1.5 5.8 4.1 7.1 7.4 1.3 3.3 1.2 7-0.3 10.2l-6.5 23.4q-0.3 1-1 1.8-0.6 0.8-1.6 1.2-0.9 0.5-2 0.5-1 0-2-0.4l-22.2-10q-1-0.4-1.7-1.2z"/>
	<path id="Layer" class="s0" d="m377.8 214.9c-1.6-0.4-3-1.1-4.2-2.1-1.3-0.9-2.3-2.2-3-3.6-0.7-1.4-1.1-2.9-1.2-4.5 0-1.5 0.3-3.1 0.9-4.5l-39.6-89.5 22.7-5.7 31.8 89.7c2.3 1.2 4.2 3.2 5.1 5.7 1 2.5 1 5.2 0.1 7.7-0.9 2.5-2.7 4.5-5 5.8-2.4 1.2-5.1 1.6-7.6 1z"/>
	<path id="Layer" class="s0" d="m388.5 377l-11.5 4.2-21.6-42.4 17-6.2 16.1 44.4z"/>
	<path id="Layer" class="s1" d="m155.9 1142.3c0 0 0 0 202.8-742.3-0.7-1.8-1-3.8-0.9-5.7 0.1-2 0.6-3.9 1.4-5.7 0.8-1.7 2-3.3 3.4-4.7 1.5-1.3 3.2-2.3 5-3l22.2-8.1 5.1 14-36.2 13.2z"/>
	<path id="Layer" class="s1" d="m360 352.4q-0.6-0.1-1.1-0.4-0.6-0.4-1-0.8-0.5-0.5-0.8-1l-43.9-76.8q-0.3-0.6-0.5-1.2-0.1-0.6-0.1-1.3 0-0.6 0.2-1.2 0.1-0.6 0.5-1.2l19.7-32.9c0.5-0.8 1.2-1.4 2-1.8 0.8-0.5 1.7-0.6 2.6-0.5 0.9 0.1 1.8 0.4 2.5 1 0.7 0.5 1.3 1.3 1.6 2.1l37.4 103.5q0.3 0.8 0.2 1.7 0 0.9-0.3 1.8-0.4 0.8-1 1.4-0.6 0.7-1.4 1.1l-13.3 6.3q-0.2 0.1-0.4 0.2-0.3 0-0.6 0.1-0.2 0.1-0.5 0.1-0.2 0-0.5 0-0.6 0-1.3-0.2z"/>
	<path id="Layer" class="s0" d="m316.4 21.4c13.6 0 24.5 10.9 24.5 24.5 0 13.6-10.9 24.6-24.5 24.6-13.6 0-24.6-11-24.6-24.6 0-13.6 11-24.5 24.6-24.5z"/>
	<path id="Layer" class="s2" d="m281.4 157.2c-19.3-42.9 0.2-66.9 9.5-75.2q1-0.9 2.1-1.6 1.1-0.7 2.4-1.2 1.2-0.4 2.6-0.7 1.3-0.2 2.6-0.2h34.6c2.5 0 4.9 0.6 7.1 1.8 2.2 1.2 4 3 5.3 5.1 1.3 2.1 2.1 4.5 2.2 7 0.1 2.5-0.4 4.9-1.6 7.2l-23.1 46.2-43.5 12z"/>
	<path id="Layer" class="s2" d="m334.1 127.1q-1.1 0.1-2-0.4-1-0.4-1.7-1.2-0.7-0.8-1-1.8l-6.9-23.2c-1.5-3.2-1.7-6.8-0.5-10.2 1.2-3.3 3.7-6 6.9-7.5 3.2-1.5 6.9-1.7 10.2-0.5 3.3 1.2 6.1 3.6 7.6 6.8l13.4 20.3q0.6 0.8 0.7 1.9 0.2 1-0.1 2-0.3 1-1 1.8-0.7 0.8-1.6 1.3l-22 10.3q-1 0.4-2 0.4z"/>
	<path id="Layer" class="s0" d="m309.4 388.6h-12.3l-5.8-47.3h18.1v47.3z"/>
	<path id="Layer" class="s1" d="m-252.5 1034.2c0 0 0 0 526-634.2 0-1.9 0.4-3.9 1.1-5.7 0.8-1.8 1.9-3.4 3.3-4.8 1.3-1.4 3-2.5 4.8-3.2 1.8-0.8 3.7-1.2 5.7-1.2h23.6v14.9h-38.5z"/>
	<path id="Layer" class="s1" d="m304.6 370.6q0 0-0.1 0-0.1 0-0.1 0-0.1 0-0.2 0l-19.6-2.3q-1-0.1-1.8-0.6-0.9-0.4-1.5-1.2-0.6-0.8-0.8-1.7-0.3-0.9-0.1-1.9l17.5-131.9q0-0.2 0-0.4 0-0.1 0-0.3 0-0.2 0-0.3-0.1-0.2-0.1-0.4l-17.6-72.6q-0.1-0.5-0.1-1-0.1-0.6 0-1.1 0.1-0.5 0.3-1 0.3-0.4 0.6-0.9c2.7-3.7 12-12.5 39.9-12.7q0.7 0 1.4 0.2 0.6 0.2 1.2 0.6 0.6 0.4 1.1 0.9 0.4 0.5 0.7 1.2l3.7 8.1q0.1 0.3 0.2 0.5 0.2 0.2 0.3 0.4 0.2 0.2 0.4 0.3 0.2 0.2 0.4 0.3c5.1 3.7 29.8 24 15.3 68.5-14.3 43.8-32.6 128.9-36.1 145.5q-0.2 0.8-0.6 1.5-0.5 0.7-1.1 1.2-0.6 0.6-1.4 0.8-0.8 0.3-1.6 0.3-0.1 0-0.2 0z"/>
	<path id="Layer" class="s1" d="m342.2 30.5q-2.1 1.4-4.4 2.5-2.3 1.1-4.7 1.9-2.4 0.7-5 1.1-2.5 0.4-5 0.4 0.9 0.6 1.9 1.1 0.9 0.6 2 1 1 0.4 2.1 0.7 1 0.3 2.1 0.5-3.4 0.7-6.8 1.1-3.5 0.4-6.9 0.4-3.5 0-7-0.3-3.4-0.4-6.8-1-0.8-0.2-1.5-0.3-0.8-0.2-1.5-0.5-0.7-0.2-1.4-0.5-0.7-0.4-1.4-0.7-0.6-0.4-1.2-0.9-0.6-0.5-1.1-1.1-0.4-0.6-0.7-1.3-0.4-0.7-0.5-1.5c-0.6-3.4 2.1-6.6 4.9-8.7q3.2-2.4 6.8-4 3.7-1.6 7.6-2.4 3.9-0.8 7.9-0.7 4 0.1 7.9 1.1c3.4 0.9 6.7 2.3 8.9 5 2.2 2.8 2.9 6.9 0.8 9.7z"/>
	<path id="Layer" class="s2" d="m53.9 307.1h112.4l36.3 16.6v76.4h-124.4l-24.3 0.7v-93.7z"/>
	<path id="Layer" class="s3" d="m53.9 307.1h112.4l36.3 16.6h-124.4l-15.6-10.5-8.7-5.8v-0.3z"/>
	<path id="Layer" class="s3" d="m53.9 307.1h0.1l8.6 6.1 15.4 10.3 0.2 76.6-24.3 0.7v-93.7z"/>
	<path id="Layer" class="s4" d="m86.7 317.2l-2.5-3.2h72.6l5.6 3.2h-75.7z"/>
	<path id="f35e270b-7f5a-4111-9d26-c6e282c8c57d-151" class="s5" d="m0.3 401.5q-0.3-0.3-0.3-0.7 0-0.4 0.3-0.7 0.3-0.3 0.7-0.3h474q0.4 0 0.7 0.3 0.3 0.3 0.3 0.7 0 0.4-0.3 0.7-0.3 0.3-0.7 0.3h-474q-0.4 0-0.7-0.3z"/>
	<path id="Layer" fill-rule="evenodd" class="s6" d="m123.5 135.9c-1.1-0.4-2.1-1.1-2.9-1.9-0.9-0.8-1.5-1.8-2-2.9-0.4-1.1-0.7-2.3-0.7-3.5v-89c0-1.2 0.3-2.3 0.7-3.4 0.5-1.1 1.1-2.1 2-2.9 0.8-0.9 1.8-1.5 2.9-2 1.1-0.4 2.3-0.7 3.4-0.7h82c1.2 0 2.4 0.3 3.5 0.7 1.1 0.5 2.1 1.1 2.9 2 0.8 0.8 1.5 1.8 2 2.9 0.4 1.1 0.6 2.2 0.6 3.4v89c0 1.2-0.2 2.4-0.6 3.5-0.5 1.1-1.2 2.1-2 2.9-0.8 0.8-1.8 1.5-2.9 1.9-1.1 0.5-2.3 0.7-3.5 0.7h-82c-1.1 0-2.3-0.2-3.4-0.7zm3.4-104.3q-1.4 0-2.6 0.6-1.3 0.5-2.3 1.5-1 1-1.5 2.3-0.6 1.2-0.6 2.6v89q0 1.4 0.6 2.7 0.5 1.3 1.5 2.3 1 1 2.3 1.5 1.2 0.5 2.6 0.5h82q1.4 0 2.7-0.5 1.3-0.5 2.3-1.5 1-1 1.5-2.3 0.5-1.3 0.5-2.7v-89q0-1.4-0.5-2.6-0.5-1.3-1.5-2.3-1-1-2.3-1.5-1.3-0.6-2.7-0.6z"/>
	<path id="Layer" class="s7" d="m190.7 66.3q-0.8-0.4-1.5-1-0.6-0.6-0.9-1.4-0.4-0.9-0.4-1.8v-8q0-0.9 0.4-1.7 0.3-0.8 0.9-1.4 0.7-0.7 1.5-1 0.8-0.4 1.7-0.4h8q0.9 0 1.7 0.4 0.9 0.3 1.5 1 0.6 0.6 1 1.4 0.3 0.8 0.3 1.7v8q0 0.9-0.3 1.8-0.4 0.8-1 1.4-0.6 0.6-1.5 1-0.8 0.3-1.7 0.3h-8q-0.9 0-1.7-0.3z"/>
	<path id="Layer" class="s2" d="m190.7 91.3q-0.8-0.4-1.5-1-0.6-0.6-0.9-1.4-0.4-0.9-0.4-1.8v-8q0-0.9 0.4-1.7 0.3-0.8 0.9-1.4 0.7-0.7 1.5-1 0.8-0.4 1.7-0.4h8q0.9 0 1.7 0.4 0.9 0.3 1.5 1 0.6 0.6 1 1.4 0.3 0.8 0.3 1.7v8q0 0.9-0.3 1.8-0.4 0.8-1 1.4-0.6 0.6-1.5 1-0.8 0.3-1.7 0.3h-8q-0.9 0-1.7-0.3z"/>
	<path id="Layer" class="s7" d="m132.8 61.5q-0.5-0.2-1-0.6-0.4-0.4-0.6-1-0.2-0.5-0.2-1.1v-1.3q0-0.6 0.2-1.2 0.2-0.5 0.6-0.9 0.5-0.4 1-0.7 0.6-0.2 1.2-0.2h37.3q0.6 0 1.2 0.2 0.5 0.3 0.9 0.7 0.4 0.4 0.7 0.9 0.2 0.6 0.2 1.2v1.3q0 0.6-0.2 1.1-0.3 0.6-0.7 1-0.4 0.4-0.9 0.6-0.6 0.3-1.2 0.3h-37.3q-0.6 0-1.2-0.3z"/>
	<path id="Layer" class="s2" d="m132.8 86.5q-0.5-0.2-1-0.6-0.4-0.4-0.6-1-0.2-0.5-0.2-1.1v-1.3q0-0.6 0.2-1.2 0.2-0.5 0.6-0.9 0.5-0.4 1-0.7 0.6-0.2 1.2-0.2h37.3q0.6 0 1.2 0.2 0.5 0.3 0.9 0.7 0.4 0.4 0.7 0.9 0.2 0.6 0.2 1.2v1.3q0 0.6-0.2 1.1-0.3 0.6-0.7 1-0.4 0.4-0.9 0.6-0.6 0.3-1.2 0.3h-37.3q-0.6 0-1.2-0.3z"/>
	<path id="Layer" class="s2" d="m190.7 116.3q-0.8-0.4-1.5-1-0.6-0.6-0.9-1.4-0.4-0.9-0.4-1.8v-8q0-0.9 0.4-1.7 0.3-0.8 0.9-1.4 0.7-0.7 1.5-1 0.8-0.4 1.7-0.4h8q0.9 0 1.7 0.4 0.9 0.3 1.5 1 0.6 0.6 1 1.4 0.3 0.8 0.3 1.7v8q0 0.9-0.3 1.8-0.4 0.8-1 1.4-0.6 0.6-1.5 1-0.8 0.3-1.7 0.3h-8q-0.9 0-1.7-0.3z"/>
	<path id="Layer" class="s2" d="m132.8 111.5q-0.5-0.2-1-0.6-0.4-0.4-0.6-1-0.2-0.5-0.2-1.1v-1.3q0-0.6 0.2-1.2 0.2-0.5 0.6-0.9 0.5-0.4 1-0.7 0.6-0.2 1.2-0.2h37.3q0.6 0 1.2 0.2 0.5 0.3 0.9 0.7 0.4 0.4 0.7 0.9 0.2 0.6 0.2 1.2v1.3q0 0.6-0.2 1.1-0.3 0.6-0.7 1-0.4 0.4-0.9 0.6-0.6 0.3-1.2 0.3h-37.3q-0.6 0-1.2-0.3z"/>
</svg>